<svg xmlns="http://www.w3.org/2000/svg" xml:space="preserve" viewBox="0 0 32 32">
  <g fill="red">
    <path d="M29 23v-2.333C29 19.196 27.654 18 26 18s-3 1.196-3 2.667V23h-2v8h10v-8zm-4-2.333c0-.315.428-.667 1-.667s1 .352 1 .667V23h-2zM29 29h-6v-4h6zM13 17c-4.411 0-8-3.589-8-8s3.589-8 8-8 8 3.589 8 8-3.589 8-8 8zm0-14C9.691 3 7 5.691 7 9s2.691 6 6 6 6-2.691 6-6-2.691-6-6-6z" data-original="#000000"/>
    <path d="M3 27c0-5.514 4.486-10 10-10a9.93 9.93 0 0 1 6.85 2.724l1.02-1.767A11.91 11.91 0 0 0 13 15C6.383 15 1 20.383 1 27v4h17v-2H3z" data-original="#000000"/>
  </g>
</svg>
