<?xml version="1.0" encoding="UTF-8"?>
<svg id="Layer_2" data-name="Layer 2" xmlns="http://www.w3.org/2000/svg" width="6.55in" height="2.85in" xmlns:xlink="http://www.w3.org/1999/xlink" viewBox="0 0 471.31 205.01">
  <defs>
    <style>
      .cls-1, .cls-2, .cls-3, .cls-4, .cls-5, .cls-6 {
        stroke-width: 0px;
      }

      .cls-1, .cls-2, .cls-7, .cls-4, .cls-5 {
        fill-rule: evenodd;
      }

      .cls-1, .cls-7, .cls-6 {
        fill: #fff;
      }

      .cls-2, .cls-3 {
        fill: #1a62af;
      }

      .cls-7 {
        stroke: #0057a8;
        stroke-miterlimit: 2.61;
        stroke-width: 1px;
      }

      .cls-4 {
        fill: url(#radial-gradient);
      }

      .cls-5 {
        fill: url(#linear-gradient);
      }
    </style>
    <radialGradient id="radial-gradient" cx="235.42" cy="118.55" fx="235.42" fy="118.55" r="162.4" gradientUnits="userSpaceOnUse">
      <stop offset="0" stop-color="#4775b7"/>
      <stop offset=".16" stop-color="#4470b0"/>
      <stop offset=".39" stop-color="#3c629e"/>
      <stop offset=".65" stop-color="#2e4b80"/>
      <stop offset=".94" stop-color="#1c2b56"/>
      <stop offset="1" stop-color="#18244d"/>
    </radialGradient>
    <linearGradient id="linear-gradient" x1="7.44" y1="138.09" x2="466" y2="138.09" gradientUnits="userSpaceOnUse">
      <stop offset="0" stop-color="#620520"/>
      <stop offset=".21" stop-color="#881031"/>
      <stop offset=".43" stop-color="#a91a3f"/>
      <stop offset=".64" stop-color="#c02149"/>
      <stop offset=".83" stop-color="#ce254f"/>
      <stop offset="1" stop-color="#d32752"/>
    </linearGradient>
  </defs>
  <g>
    <path class="cls-4" d="M464.7,125.72c-152.86-21.5-305.7,21.49-458.55,0,0-4.78,0-9.55,0-14.33,152.85,21.49,305.69-21.49,458.55,0,0,4.78,0,9.55,0,14.33h0Z"/>
    <path class="cls-5" d="M466,145.26c-152.86-21.5-305.7,21.5-458.56,0,0-4.78,0-9.55,0-14.33,152.86,21.49,305.7-21.49,458.56,0,0,4.78,0,9.55,0,14.33h0Z"/>
    <path class="cls-2" d="M195.41,175.19v-24.85h18.39v4.2h-13.37v5.51h12.44v4.2h-12.44v6.73h13.84v4.2h-18.87ZM234.86,175.19h-4.77v-9.19c0-1.95-.11-3.2-.31-3.78-.21-.57-.54-1.01-.99-1.33-.46-.32-1.01-.48-1.66-.48-.82,0-1.56.23-2.21.68-.66.45-1.11,1.05-1.34,1.8-.24.75-.37,2.13-.37,4.14v8.16s-4.77,0-4.77,0v-18.01h4.43v2.64c1.57-2.03,3.55-3.05,5.93-3.05,1.05,0,2.01.19,2.88.57.87.38,1.52.86,1.98,1.45.44.59.76,1.25.93,2,.17.75.27,1.81.27,3.2v11.19h0ZM243.52,165.81c0,1.91.37,3.31,1.1,4.2.74.89,1.65,1.33,2.73,1.33,1.16,0,2.13-.46,2.94-1.37.81-.91,1.2-2.26,1.2-4.05,0-1.87-.38-3.25-1.15-4.16-.77-.91-1.73-1.36-2.9-1.36s-2.07.45-2.82,1.33c-.73.89-1.1,2.24-1.1,4.07h0ZM239.24,176.36l5.45.66c.09.64.29,1.08.62,1.32.45.34,1.17.51,2.15.51,1.23,0,2.17-.19,2.79-.56.42-.25.73-.65.95-1.2.15-.4.22-1.13.22-2.19v-2.63c-1.41,1.95-3.21,2.92-5.38,2.92-2.43,0-4.34-1.02-5.74-3.07-1.11-1.62-1.67-3.63-1.67-6.04,0-3.02.73-5.32,2.18-6.92,1.45-1.59,3.26-2.39,5.42-2.39s4.06.98,5.51,2.93v-2.52h4.45v16.15c0,2.12-.18,3.71-.52,4.76-.35,1.05-.85,1.88-1.48,2.48-.63.6-1.49,1.07-2.54,1.41-1.06.34-2.4.51-4.01.51-3.05,0-5.22-.52-6.5-1.57-1.28-1.05-1.92-2.37-1.92-3.98,0-.16.01-.35.01-.58h0ZM260.89,175.19v-24.85h4.77v24.85h-4.77ZM270.54,175.19v-18.01h4.77v18.01h-4.77ZM270.54,154.74v-4.4h4.77v4.4h-4.77ZM278.5,170.06l4.79-.72c.21.93.61,1.63,1.23,2.11.62.48,1.49.72,2.6.72,1.23,0,2.16-.23,2.78-.68.42-.32.62-.74.62-1.27,0-.36-.11-.66-.34-.9-.23-.23-.77-.43-1.6-.63-3.83-.85-6.27-1.62-7.29-2.32-1.43-.97-2.13-2.32-2.13-4.06,0-1.56.62-2.87,1.85-3.94,1.22-1.06,3.13-1.6,5.72-1.6s4.29.4,5.5,1.2c1.2.8,2.01,1.99,2.46,3.56l-4.49.84c-.2-.7-.56-1.24-1.1-1.61-.54-.37-1.29-.56-2.29-.56-1.26,0-2.15.17-2.68.53-.37.25-.55.57-.55.97,0,.34.16.63.48.86.43.32,1.91.76,4.45,1.34,2.54.58,4.31,1.28,5.31,2.12,1,.85,1.5,2.03,1.5,3.54,0,1.65-.7,3.07-2.07,4.25-1.38,1.19-3.41,1.78-6.12,1.78-2.45,0-4.39-.5-5.82-1.49-1.43-.99-2.37-2.34-2.8-4.05h0ZM304.25,150.33v9.11c1.52-1.78,3.35-2.67,5.49-2.67,1.09,0,2.07.2,2.95.61.88.41,1.55.93,1.99,1.56.45.63.74,1.33.92,2.1.16.77.24,1.96.24,3.58v10.56s-4.77,0-4.77,0v-9.52c0-1.89-.09-3.09-.27-3.6-.18-.51-.5-.91-.95-1.21-.45-.3-1.02-.45-1.71-.45-.79,0-1.49.19-2.11.58-.62.38-1.07.96-1.35,1.74-.29.77-.43,1.92-.43,3.44v9.02s-4.77,0-4.77,0v-24.85h4.77ZM330.21,175.19v-24.85h5.01v24.85h-5.01ZM356.32,175.19h-4.77v-9.19c0-1.95-.1-3.2-.31-3.78-.21-.57-.54-1.01-.99-1.33-.46-.32-1.01-.48-1.65-.48-.83,0-1.56.23-2.22.68-.66.45-1.1,1.05-1.34,1.8-.24.75-.37,2.13-.37,4.14v8.16s-4.77,0-4.77,0v-18.01h4.43v2.64c1.57-2.03,3.55-3.05,5.93-3.05,1.05,0,2.01.19,2.88.57.87.38,1.52.86,1.98,1.45.44.59.76,1.25.93,2,.18.75.27,1.81.27,3.2v11.19h0ZM359.49,170.06l4.78-.72c.21.93.62,1.63,1.23,2.11.62.48,1.49.72,2.61.72,1.22,0,2.15-.23,2.77-.68.42-.32.62-.74.62-1.27,0-.36-.11-.66-.34-.9-.23-.23-.77-.43-1.59-.63-3.84-.85-6.28-1.62-7.31-2.32-1.41-.97-2.13-2.32-2.13-4.06,0-1.56.62-2.87,1.85-3.94,1.23-1.06,3.13-1.6,5.72-1.6s4.29.4,5.5,1.2c1.2.8,2.03,1.99,2.48,3.56l-4.5.84c-.2-.7-.56-1.24-1.09-1.61-.55-.37-1.31-.56-2.29-.56-1.26,0-2.16.17-2.7.53-.36.25-.55.57-.55.97,0,.34.16.63.48.86.44.32,1.92.76,4.45,1.34,2.54.58,4.31,1.28,5.31,2.12,1,.85,1.5,2.03,1.5,3.54,0,1.65-.7,3.07-2.07,4.25-1.38,1.19-3.42,1.78-6.11,1.78-2.45,0-4.39-.5-5.83-1.49-1.43-.99-2.35-2.34-2.79-4.05h0ZM388.76,157.18v3.8h-3.26v7.26c0,1.47.04,2.33.1,2.57.06.24.2.44.41.6.22.16.49.24.81.24.44,0,1.07-.15,1.9-.46l.41,3.7c-1.1.48-2.35.71-3.74.71-.87,0-1.63-.14-2.32-.43-.69-.29-1.2-.66-1.52-1.12-.32-.46-.54-1.08-.66-1.86-.11-.55-.16-1.67-.16-3.36v-7.85s-2.18,0-2.18,0v-3.8h2.18v-3.57l4.77-2.8v6.37h3.26ZM392.01,175.19v-18.01h4.77v18.01h-4.77ZM392.01,154.74v-4.4h4.77v4.4h-4.77ZM409.95,157.18v3.8h-3.26v7.26c0,1.47.04,2.33.1,2.57.06.24.2.44.41.6.22.16.49.24.81.24.44,0,1.07-.15,1.9-.46l.42,3.7c-1.1.48-2.35.71-3.74.71-.87,0-1.63-.14-2.33-.43-.68-.29-1.18-.66-1.51-1.12-.32-.46-.54-1.08-.66-1.86-.11-.55-.16-1.67-.16-3.36v-7.85s-2.19,0-2.19,0v-3.8h2.2v-3.57l4.77-2.8v6.37h3.26ZM425.05,175.19v-2.69c-.66.96-1.51,1.72-2.59,2.27-1.06.55-2.18.83-3.37.83-1.21,0-2.29-.27-3.26-.8-.95-.53-1.65-1.28-2.07-2.24-.43-.96-.65-2.29-.65-3.98v-11.39h4.77v8.27c0,2.53.09,4.08.26,4.65.18.57.5,1.02.96,1.36.45.33,1.04.5,1.76.5.81,0,1.54-.22,2.17-.67.65-.45,1.09-1,1.32-1.66.24-.66.35-2.28.35-4.85v-7.59h4.77v18.01h-4.43ZM442.7,157.18v3.8h-3.26v7.26c0,1.47.04,2.33.1,2.57.06.24.21.44.43.6.22.16.48.24.79.24.44,0,1.07-.15,1.9-.46l.43,3.7c-1.11.48-2.36.71-3.76.71-.85,0-1.63-.14-2.32-.43-.68-.29-1.2-.66-1.51-1.12-.32-.46-.55-1.08-.67-1.86-.1-.55-.15-1.67-.15-3.36v-7.85s-2.2,0-2.2,0v-3.8h2.2v-3.57l4.76-2.8v6.37h3.26ZM456.66,164.64c-.04-1.38-.39-2.43-1.06-3.15-.68-.72-1.5-1.08-2.48-1.08-1.04,0-1.89.38-2.56,1.14-.68.76-1.01,1.79-1,3.09h7.1ZM456.39,169.45l4.74.79c-.61,1.75-1.57,3.08-2.89,3.99-1.32.91-2.95,1.37-4.93,1.37-3.13,0-5.44-1.02-6.94-3.07-1.19-1.64-1.78-3.71-1.78-6.21,0-2.98.78-5.32,2.33-7.01,1.56-1.69,3.52-2.53,5.92-2.53,2.67,0,4.78.88,6.32,2.65,1.55,1.77,2.29,4.48,2.22,8.13h-11.9c.04,1.41.41,2.51,1.15,3.3.73.79,1.65,1.18,2.74,1.18.74,0,1.37-.2,1.88-.61.5-.41.89-1.06,1.15-1.97h0Z"/>
    <path class="cls-1" d="M181.57,200.81l3.03-14.49h1.93l-2.68,12.86h7.49l-.35,1.64h-9.41ZM200.38,195.49c-.24.1-.51.17-.81.23-.28.05-.77.11-1.44.17-1.05.09-1.78.21-2.21.35-.43.14-.76.37-.98.68-.22.31-.32.65-.32,1.03,0,.5.17.91.51,1.23.35.32.84.48,1.49.48.59,0,1.16-.16,1.71-.47.55-.31.99-.75,1.31-1.31.31-.56.56-1.36.73-2.39h0ZM199.72,199.5c-.62.53-1.22.92-1.79,1.17-.57.25-1.18.37-1.83.37-.97,0-1.76-.29-2.35-.86-.6-.57-.89-1.3-.89-2.19,0-.59.13-1.11.4-1.56.27-.45.62-.81,1.06-1.09.44-.27.98-.47,1.62-.59.4-.08,1.17-.14,2.29-.19,1.12-.05,1.93-.16,2.42-.36.13-.49.21-.89.21-1.21,0-.41-.16-.74-.45-.98-.41-.33-1.02-.49-1.83-.49-.74,0-1.37.16-1.84.5-.48.33-.83.8-1.04,1.41l-1.8-.16c.38-1.04.95-1.84,1.76-2.39.81-.56,1.81-.83,3.02-.83,1.31,0,2.33.31,3.09.93.59.46.87,1.06.87,1.8,0,.56-.07,1.21-.24,1.95l-.58,2.61c-.18.83-.27,1.51-.27,2.03,0,.33.06.8.21,1.42h-1.8c-.1-.34-.17-.78-.21-1.31h0ZM209.71,200.81l3.04-14.49h10.51l-.34,1.64h-8.59l-.95,4.53h8.42l-.34,1.64h-8.42l-1.06,5.05h9.19l-.35,1.64h-11.1ZM222.31,200.81l4.57-5.3-2.62-5.2h1.98l.89,1.88c.33.7.63,1.36.9,2l3.01-3.88h2.18l-4.4,5.32,2.65,5.18h-1.99l-1.05-2.13c-.22-.45-.48-1.01-.74-1.68l-3.12,3.8h-2.26ZM240.37,196.98l1.8.19c-.45,1.31-1.09,2.29-1.92,2.92-.83.64-1.77.96-2.82.96-1.15,0-2.06-.37-2.77-1.11-.71-.74-1.06-1.77-1.06-3.09,0-1.15.22-2.28.67-3.38.46-1.11,1.11-1.95,1.95-2.53.85-.58,1.82-.87,2.9-.87s2.01.32,2.68.96c.65.64.98,1.48.98,2.53l-1.76.12c-.01-.67-.2-1.19-.57-1.57-.38-.38-.88-.57-1.5-.57-.72,0-1.34.23-1.87.68-.52.45-.94,1.15-1.23,2.07-.3.93-.45,1.82-.45,2.68,0,.9.2,1.57.59,2.02.4.45.88.67,1.46.67.57,0,1.13-.22,1.66-.66.52-.44.95-1.11,1.25-2.02h0ZM245.78,194.63h5.89c0-.19,0-.32,0-.4,0-.9-.22-1.58-.67-2.06-.44-.48-1.01-.72-1.72-.72-.77,0-1.46.26-2.09.79-.63.53-1.1,1.32-1.41,2.38h0ZM250.97,197.25l1.74.18c-.26.86-.83,1.68-1.73,2.45-.89.78-1.96,1.16-3.21,1.16-.78,0-1.5-.18-2.15-.54-.65-.36-1.13-.88-1.48-1.57-.34-.69-.51-1.47-.51-2.34,0-1.15.27-2.26.79-3.34.54-1.08,1.22-1.88,2.06-2.4.84-.52,1.76-.79,2.74-.79,1.24,0,2.24.39,3,1.17.75.78,1.11,1.84,1.11,3.18,0,.51-.04,1.04-.13,1.58h-7.72c-.04.2-.05.39-.05.55,0,.98.23,1.73.68,2.25.45.52,1,.78,1.65.78s1.22-.2,1.82-.6c.59-.4,1.05-.98,1.38-1.73h0ZM254.4,200.81l3.02-14.49h1.79l-3.03,14.49h-1.79ZM261.54,194.63h5.88c.01-.19.01-.32.01-.4,0-.9-.22-1.58-.67-2.06-.44-.48-1.02-.72-1.72-.72-.77,0-1.46.26-2.1.79-.62.53-1.1,1.32-1.4,2.38h0ZM266.73,197.25l1.73.18c-.24.86-.82,1.68-1.72,2.45-.9.78-1.98,1.16-3.22,1.16-.77,0-1.49-.18-2.13-.54-.65-.36-1.15-.88-1.49-1.57-.33-.69-.5-1.47-.5-2.34,0-1.15.27-2.26.79-3.34.52-1.08,1.22-1.88,2.06-2.4.84-.52,1.76-.79,2.73-.79,1.26,0,2.26.39,3,1.17.76.78,1.12,1.84,1.12,3.18,0,.51-.05,1.04-.13,1.58h-7.72c-.04.2-.05.39-.05.55,0,.98.22,1.73.67,2.25.45.52,1.01.78,1.66.78.61,0,1.22-.2,1.81-.6.6-.4,1.06-.98,1.39-1.73h0ZM270.28,200.81l2.2-10.51h1.62l-.37,1.83c.71-.72,1.38-1.24,2-1.57.61-.33,1.24-.49,1.89-.49.87,0,1.54.23,2.03.7.5.47.74,1.09.74,1.87,0,.39-.1,1-.28,1.83l-1.41,6.34h-1.78l1.46-6.66c.15-.65.22-1.12.22-1.44,0-.35-.12-.63-.37-.85-.24-.22-.6-.33-1.06-.33-.93,0-1.76.33-2.49.99-.72.66-1.26,1.79-1.6,3.4l-1.01,4.88h-1.79ZM288.77,196.98l1.79.19c-.44,1.31-1.09,2.29-1.9,2.92-.83.64-1.77.96-2.83.96-1.13,0-2.06-.37-2.77-1.11-.71-.74-1.06-1.77-1.06-3.09,0-1.15.23-2.28.68-3.38.45-1.11,1.11-1.95,1.95-2.53.84-.58,1.82-.87,2.9-.87s2.01.32,2.67.96c.66.64.99,1.48.99,2.53l-1.76.12c-.01-.67-.21-1.19-.59-1.57-.38-.38-.88-.57-1.49-.57-.72,0-1.34.23-1.87.68-.52.45-.94,1.15-1.24,2.07-.29.93-.45,1.82-.45,2.68,0,.9.21,1.57.6,2.02.39.45.88.67,1.46.67.57,0,1.12-.22,1.66-.66.52-.44.94-1.11,1.25-2.02h0ZM294.24,188.33l.43-2.02h1.78l-.43,2.02h-1.78ZM291.63,200.81l2.2-10.51h1.79l-2.2,10.51h-1.79ZM303.91,195.49c-.26.1-.53.17-.81.23-.29.05-.77.11-1.45.17-1.04.09-1.77.21-2.21.35-.43.14-.74.37-.96.68-.22.31-.33.65-.33,1.03,0,.5.17.91.51,1.23.35.32.84.48,1.49.48.6,0,1.17-.16,1.72-.47.55-.31.98-.75,1.29-1.31.32-.56.56-1.36.74-2.39h0ZM303.25,199.5c-.62.53-1.22.92-1.79,1.17-.57.25-1.2.37-1.84.37-.97,0-1.76-.29-2.35-.86-.58-.57-.89-1.3-.89-2.19,0-.59.13-1.11.4-1.56.27-.45.62-.81,1.06-1.09.44-.27.99-.47,1.62-.59.4-.08,1.17-.14,2.29-.19,1.12-.05,1.93-.16,2.42-.36.13-.49.21-.89.21-1.21,0-.41-.15-.74-.45-.98-.41-.33-1.02-.49-1.82-.49-.76,0-1.37.16-1.85.5-.48.33-.82.8-1.04,1.41l-1.79-.16c.37-1.04.95-1.84,1.74-2.39.81-.56,1.82-.83,3.04-.83,1.29,0,2.32.31,3.07.93.59.46.88,1.06.88,1.8,0,.56-.09,1.21-.26,1.95l-.58,2.61c-.18.83-.27,1.51-.27,2.03,0,.33.07.8.22,1.42h-1.82c-.1-.34-.16-.78-.2-1.31h0ZM315.22,196.4c0,.73.07,1.31.22,1.73.15.42.39.77.73,1.05.35.28.77.42,1.26.42.82,0,1.55-.42,2.21-1.27.89-1.12,1.33-2.5,1.33-4.15,0-.83-.22-1.49-.66-1.96-.43-.47-.98-.71-1.63-.71-.43,0-.82.1-1.17.29-.35.19-.71.52-1.05.98-.35.46-.65,1.04-.88,1.75-.23.7-.35,1.33-.35,1.86h0ZM320.12,199.28c-1.03,1.17-2.09,1.76-3.21,1.76-.99,0-1.82-.37-2.48-1.1-.67-.74-1-1.8-1-3.2,0-1.28.27-2.45.79-3.51.52-1.06,1.17-1.85,1.96-2.38.78-.53,1.57-.79,2.37-.79,1.31,0,2.28.63,2.95,1.89l1.18-5.64h1.78l-3.02,14.49h-1.65l.32-1.52h0ZM326.82,194.63h5.88c.01-.19.01-.32.01-.4,0-.9-.22-1.58-.67-2.06-.45-.48-1.03-.72-1.73-.72-.76,0-1.45.26-2.09.79-.62.53-1.1,1.32-1.4,2.38h0ZM332.01,197.25l1.73.18c-.24.86-.82,1.68-1.72,2.45-.9.78-1.98,1.16-3.22,1.16-.77,0-1.49-.18-2.13-.54-.65-.36-1.15-.88-1.49-1.57-.34-.69-.5-1.47-.5-2.34,0-1.15.26-2.26.79-3.34.52-1.08,1.22-1.88,2.06-2.4.84-.52,1.76-.79,2.73-.79,1.26,0,2.26.39,3,1.17.74.78,1.12,1.84,1.12,3.18,0,.51-.05,1.04-.13,1.58h-7.72c-.04.2-.05.39-.05.55,0,.98.22,1.73.67,2.25.45.52,1.01.78,1.66.78.61,0,1.22-.2,1.81-.6.6-.4,1.06-.98,1.39-1.73h0ZM335.44,200.81l3.03-14.49h1.79l-3.03,14.49h-1.79ZM346.2,200.81l3.03-14.49h1.93l-3.02,14.49h-1.93ZM353.48,196.4c0,.73.07,1.31.22,1.73.15.42.39.77.73,1.05.35.28.77.42,1.27.42.81,0,1.54-.42,2.2-1.27.89-1.12,1.33-2.5,1.33-4.15,0-.83-.22-1.49-.66-1.96-.43-.47-.98-.71-1.63-.71-.43,0-.82.1-1.17.29-.35.19-.71.52-1.05.98-.35.46-.63,1.04-.88,1.75-.23.7-.35,1.33-.35,1.86h0ZM358.38,199.28c-1.03,1.17-2.09,1.76-3.21,1.76-.99,0-1.82-.37-2.48-1.1-.66-.74-.99-1.8-.99-3.2,0-1.28.26-2.45.78-3.51.52-1.06,1.17-1.85,1.96-2.38.78-.53,1.57-.79,2.37-.79,1.31,0,2.28.63,2.95,1.89l1.18-5.64h1.78l-3.03,14.49h-1.65l.32-1.52h0ZM365.14,188.33l.43-2.02h1.78l-.43,2.02h-1.78ZM362.53,200.81l2.2-10.51h1.79l-2.2,10.51h-1.79ZM369.17,196.64c0,.99.24,1.74.71,2.25.48.51,1.09.77,1.82.77.38,0,.76-.08,1.13-.23.38-.15.72-.39,1.05-.71.32-.32.6-.68.82-1.08.23-.41.41-.84.55-1.31.21-.65.31-1.28.31-1.88,0-.95-.23-1.68-.71-2.21-.47-.52-1.09-.79-1.81-.79-.56,0-1.07.13-1.54.4-.46.27-.88.66-1.24,1.17-.38.51-.65,1.11-.82,1.79-.18.68-.27,1.29-.27,1.82h0ZM367.39,196.82c0-2.05.6-3.75,1.8-5.09,1-1.11,2.31-1.66,3.92-1.66,1.27,0,2.28.4,3.06,1.19.77.79,1.16,1.86,1.16,3.2,0,1.21-.24,2.33-.73,3.37-.49,1.04-1.18,1.83-2.09,2.39-.89.55-1.84.83-2.84.83-.82,0-1.55-.18-2.22-.52-.67-.35-1.18-.85-1.54-1.48-.35-.64-.52-1.38-.52-2.22h0ZM378.33,200.81l2.2-10.51h1.78l-.35,1.74c.66-.75,1.26-1.27,1.78-1.55.52-.29,1.1-.43,1.71-.43.66,0,1.21.17,1.65.52.44.34.72.83.87,1.45.52-.66,1.1-1.15,1.68-1.48.6-.32,1.21-.49,1.87-.49.88,0,1.54.21,1.98.63.44.42.66,1,.66,1.76,0,.32-.07.86-.23,1.6l-1.43,6.76h-1.79l1.45-6.95c.12-.57.18-.97.18-1.22,0-.34-.11-.61-.32-.81-.22-.2-.54-.3-.93-.3-.54,0-1.09.16-1.63.49-.56.32-.99.75-1.29,1.27-.3.53-.59,1.33-.81,2.42l-1.07,5.09h-1.78l1.47-7.1c.11-.48.16-.82.16-1.03,0-.34-.11-.62-.32-.83-.22-.21-.5-.32-.84-.32-.5,0-1.04.16-1.6.49-.55.32-1.01.78-1.35,1.35-.35.58-.63,1.4-.87,2.48l-1.04,4.96h-1.78ZM402.93,195.49c-.24.1-.51.17-.81.23-.28.05-.77.11-1.44.17-1.05.09-1.78.21-2.21.35-.43.14-.76.37-.98.68-.22.31-.33.65-.33,1.03,0,.5.18.91.52,1.23.35.32.84.48,1.49.48.59,0,1.16-.16,1.71-.47.55-.31.99-.75,1.29-1.31.32-.56.56-1.36.75-2.39h0ZM402.27,199.5c-.62.53-1.22.92-1.79,1.17-.57.25-1.18.37-1.84.37-.96,0-1.74-.29-2.34-.86-.6-.57-.89-1.3-.89-2.19,0-.59.13-1.11.4-1.56.27-.45.62-.81,1.06-1.09.44-.27.98-.47,1.62-.59.4-.08,1.16-.14,2.29-.19,1.12-.05,1.93-.16,2.42-.36.13-.49.21-.89.21-1.21,0-.41-.16-.74-.46-.98-.41-.33-1.01-.49-1.82-.49-.74,0-1.37.16-1.84.5-.48.33-.83.8-1.05,1.41l-1.79-.16c.37-1.04.95-1.84,1.76-2.39.81-.56,1.81-.83,3.03-.83,1.31,0,2.33.31,3.09.93.57.46.87,1.06.87,1.8,0,.56-.09,1.21-.24,1.95l-.58,2.61c-.18.83-.28,1.51-.28,2.03,0,.33.07.8.22,1.42h-1.8c-.1-.34-.17-.78-.21-1.31h0ZM412.58,200.81l3.02-14.49h1.93l-3.03,14.49h-1.93ZM417.7,200.81l2.2-10.51h1.62l-.38,1.83c.72-.72,1.38-1.24,2-1.57.62-.33,1.26-.49,1.9-.49.86,0,1.54.23,2.03.7.49.47.73,1.09.73,1.87,0,.39-.09,1-.27,1.83l-1.41,6.34h-1.79l1.47-6.66c.15-.65.22-1.12.22-1.44,0-.35-.12-.63-.37-.85-.24-.22-.6-.33-1.06-.33-.94,0-1.77.33-2.49.99-.73.66-1.27,1.79-1.61,3.4l-1.01,4.88h-1.78ZM431.09,196.16c0,.72.06,1.26.21,1.62.2.51.48.9.84,1.16.37.27.77.4,1.22.4.59,0,1.17-.21,1.74-.62.59-.41,1.05-1.05,1.41-1.91.36-.86.54-1.69.54-2.47,0-.87-.24-1.55-.72-2.07-.47-.51-1.07-.77-1.77-.77-.44,0-.85.12-1.27.35-.4.23-.78.59-1.13,1.07-.35.48-.62,1.05-.8,1.71-.18.66-.27,1.17-.27,1.51h0ZM428.84,201.76l1.82.16c-.01.41.04.72.15.93.12.21.29.37.54.48.33.15.74.22,1.26.22,1.09,0,1.87-.28,2.34-.84.3-.38.59-1.2.85-2.46l.18-.85c-.93.94-1.92,1.42-2.97,1.42-1.06,0-1.95-.39-2.66-1.17-.72-.78-1.07-1.89-1.07-3.32,0-1.18.28-2.27.84-3.26.56-.99,1.23-1.74,2-2.24.78-.5,1.59-.76,2.4-.76,1.38,0,2.44.65,3.18,1.95l.35-1.71h1.65l-2.11,10.14c-.23,1.12-.54,1.98-.92,2.61-.38.62-.9,1.11-1.57,1.45-.66.34-1.44.51-2.32.51s-1.56-.11-2.17-.33c-.61-.22-1.07-.53-1.37-.95-.3-.42-.45-.9-.45-1.44,0-.16.01-.34.04-.53h0ZM440.09,200.81l3.03-14.49h1.79l-3.04,14.49h-1.78ZM449.67,189.04l1.87-2.72h2.26l-2.65,2.72h-1.48ZM447.22,194.63h5.89c0-.19.01-.32.01-.4,0-.9-.23-1.58-.67-2.06-.45-.48-1.02-.72-1.73-.72-.77,0-1.46.26-2.09.79-.63.53-1.1,1.32-1.41,2.38h0ZM452.41,197.25l1.74.18c-.26.86-.83,1.68-1.73,2.45-.89.78-1.96,1.16-3.21,1.16-.78,0-1.49-.18-2.15-.54-.65-.36-1.13-.88-1.48-1.57-.34-.69-.51-1.47-.51-2.34,0-1.15.27-2.26.79-3.34.54-1.08,1.22-1.88,2.06-2.4.84-.52,1.76-.79,2.74-.79,1.24,0,2.24.39,3,1.17.75.78,1.12,1.84,1.12,3.18,0,.51-.05,1.04-.15,1.58h-7.72c-.04.2-.05.39-.05.55,0,.98.23,1.73.68,2.25.45.52,1,.78,1.66.78.61,0,1.21-.2,1.81-.6.59-.4,1.05-.98,1.38-1.73h0ZM456.13,197.21l1.81-.11c0,.51.07.95.23,1.32.16.36.45.66.88.89.42.23.91.35,1.48.35.79,0,1.38-.16,1.78-.47.39-.32.59-.69.59-1.12,0-.31-.11-.6-.35-.88-.24-.28-.84-.62-1.78-1.02-.94-.41-1.55-.69-1.82-.85-.44-.27-.77-.59-1-.95-.22-.37-.33-.79-.33-1.26,0-.83.33-1.54.99-2.14.66-.59,1.59-.89,2.77-.89,1.32,0,2.32.31,3.01.92.68.61,1.04,1.41,1.07,2.41l-1.76.12c-.02-.63-.24-1.13-.67-1.5-.43-.37-1.02-.55-1.79-.55-.61,0-1.1.14-1.44.42-.34.28-.51.59-.51.92s.15.62.44.87c.21.17.71.43,1.54.79,1.37.59,2.23,1.06,2.59,1.4.56.55.85,1.21.85,2,0,.52-.16,1.03-.49,1.53-.32.5-.81.9-1.45,1.2-.66.3-1.43.45-2.32.45-1.22,0-2.24-.3-3.1-.9-.84-.6-1.24-1.58-1.21-2.93h0Z"/>
    <polygon class="cls-7" points="82.68 120.1 86.33 130.82 97.65 130.62 88.59 137.4 92.28 148.11 83.03 141.58 73.99 148.4 77.33 137.58 68.05 131.09 79.38 130.93 82.68 120.1 82.68 120.1"/>
    <polygon class="cls-7" points="155.05 116.94 158.7 127.66 170.02 127.46 160.96 134.24 164.65 144.94 155.4 138.42 146.36 145.24 149.7 134.42 140.43 127.93 151.75 127.77 155.05 116.94 155.05 116.94"/>
    <polygon class="cls-7" points="227.43 113.78 231.08 124.5 242.4 124.29 233.33 131.08 237.02 141.78 227.77 135.25 218.73 142.07 222.08 131.26 212.8 124.77 224.12 124.61 227.43 113.78 227.43 113.78"/>
    <polygon class="cls-7" points="299.8 110.62 303.45 121.33 314.77 121.13 305.7 127.92 309.39 138.62 300.14 132.09 291.1 138.91 294.45 128.1 285.17 121.6 296.49 121.45 299.8 110.62 299.8 110.62"/>
    <polygon class="cls-7" points="372.17 107.46 375.82 118.17 387.14 117.97 378.07 124.76 381.77 135.46 372.51 128.93 363.47 135.75 366.82 124.94 357.54 118.44 368.86 118.29 372.17 107.46 372.17 107.46"/>
  </g>
  <path class="cls-3" d="M94.14,43.76V0h12.78v43.76h-12.78ZM159.13,43.76c-3.43,0-4.82-1.14-7.3-3.7l-24.46-24.37v28.07h-12.42V4.98c0-3.3,1.97-4.98,5.92-4.98h3.07c3.94,0,5.55,1.01,7.74,3.23l22.42,22.28V0h12.34v39.25c0,2.96-1.61,4.51-4.75,4.51h-2.56ZM197.98,43.76c-14.53,0-25.12-8.82-25.12-21.88S183.45,0,197.98,0h25.41v11.24h-26.29c-6.65,0-11.54,4.31-11.54,10.64s4.89,10.57,11.54,10.57h14.17v-5.99h-15.41v-9.36h27.53v26.66h-25.41ZM231.42,43.76V0h12.85v32.45h28.92v11.31h-41.77ZM278.67,43.76V0h45.57v11.24h-32.79v21.21h32.86v11.31h-45.64ZM295.69,26.46v-9.36h28.04v9.36h-28.04ZM330.59,43.76v-11.31h35.49c1.83,0,3.14-1.08,3.14-2.96s-1.31-3.03-3.14-3.03h-20.89c-8.84,0-15.19-5.39-15.19-13.19s6.35-13.26,15.19-13.26h36.08v11.24h-35.49c-1.83,0-3.07,1.01-3.07,2.9s1.24,2.96,3.07,2.96h20.89c8.91,0,15.26,5.45,15.26,13.26s-6.35,13.4-15.26,13.4h-36.08Z"/>
  <path class="cls-6" d="M0,100.78v-43.76h12.78v43.76H0ZM20.81,100.78v-43.76h27.31c14.46,0,25.05,8.82,25.05,21.88s-10.59,21.88-25.05,21.88h-27.31ZM49,89.47c6.65,0,11.39-4.31,11.39-10.57s-4.75-10.64-11.39-10.64h-15.41v21.21h15.41ZM79.74,100.78v-43.76h12.78v43.76h-12.78ZM124.14,100.78c-14.53,0-25.12-8.82-25.12-21.88s10.59-21.88,25.12-21.88h6.87c14.46,0,25.05,8.82,25.05,21.88s-10.59,21.88-25.05,21.88h-6.87ZM131.88,89.47c6.65,0,11.47-4.31,11.47-10.57s-4.82-10.64-11.47-10.64h-8.62c-6.65,0-11.54,4.31-11.54,10.64s4.82,10.57,11.54,10.57h8.62ZM216.96,100.78l-7.01-28.14-8.25,23.97c-.88,2.83-2.99,4.17-5.99,4.17h-3.87c-3.07,0-5.11-1.35-5.99-4.17l-8.25-24.44-7.01,28.61h-12.63l9.64-38.78c.8-3.64,2.99-4.98,6.21-4.98h5.33c2.99,0,5.11,1.35,6.06,4.24l8.62,26.19,8.54-26.19c.95-2.89,2.99-4.24,5.99-4.24h5.33c3.21,0,5.4,1.35,6.28,4.98l9.71,38.78h-12.71ZM281.59,100.78l-3.94-6.73h-22.27l5.4-9.36h11.47l-8.11-14.07-17.38,30.16h-14.09l24.25-40.53c1.31-2.15,3.21-3.23,5.7-3.23h2.92c2.48,0,4.38,1.08,5.7,3.23l24.25,40.53h-13.88ZM305.76,100.78v-32.52h-17.45v-11.24h47.69v11.24h-17.45v32.52h-12.78ZM341.47,100.78v-43.76h12.78v43.76h-12.78ZM385.87,100.78c-14.53,0-25.12-8.82-25.12-21.88s10.59-21.88,25.12-21.88h23.22v11.24h-24.1c-6.65,0-11.54,4.31-11.54,10.64s4.89,10.57,11.54,10.57h24.1v11.31h-23.22ZM439.4,100.78c-14.53,0-25.12-8.82-25.12-21.88s10.59-21.88,25.12-21.88h6.87c14.46,0,25.05,8.82,25.05,21.88s-10.59,21.88-25.05,21.88h-6.87ZM447.14,89.47c6.65,0,11.47-4.31,11.47-10.57s-4.82-10.64-11.47-10.64h-8.62c-6.65,0-11.54,4.31-11.54,10.64s4.82,10.57,11.54,10.57h8.62Z"/>
</svg>